<?xml version="1.0" encoding="UTF-8" standalone="no"?>
<svg
   width="116px"
   height="40px"
   viewBox="0 0 116 40"
   version="1.1"
   id="svg1"
   sodipodi:docname="logo.svg"
   inkscape:version="1.3 (0e150ed6c4, 2023-07-21)"
   xmlns:inkscape="http://www.inkscape.org/namespaces/inkscape"
   xmlns:sodipodi="http://sodipodi.sourceforge.net/DTD/sodipodi-0.dtd"
   xmlns="http://www.w3.org/2000/svg"
   xmlns:svg="http://www.w3.org/2000/svg">
  <defs
     id="defs1" />
  <sodipodi:namedview
     id="namedview1"
     pagecolor="#ffffff"
     bordercolor="#000000"
     borderopacity="0.25"
     inkscape:showpageshadow="2"
     inkscape:pageopacity="0.0"
     inkscape:pagecheckerboard="0"
     inkscape:deskcolor="#d1d1d1"
     inkscape:zoom="10.758621"
     inkscape:cx="61.625"
     inkscape:cy="20.030449"
     inkscape:window-width="1922"
     inkscape:window-height="1061"
     inkscape:window-x="0"
     inkscape:window-y="21"
     inkscape:window-maximized="1"
     inkscape:current-layer="text" />
  <title
     id="title1">logo</title>
  <g
     id="💎-Blocks"
     stroke="none"
     stroke-width="1"
     fill="none"
     fill-rule="evenodd">
    <g
       id="_Styleguide"
       transform="translate(-172.000000, -197.000000)">
      <g
         id="Group"
         transform="translate(172.000000, 196.000000)">
        <g
           id="logo"
           transform="translate(0.000000, 1.000000)">
          <path
             d="M34.875,0 C38.8100292,0 42,3.3578652 42,7.5 L42,32.5 C42,36.642136 38.8100292,40 34.875,40 L11.1250004,40 C7.1899708,40 4,36.642136 4,32.5 L4,7.5 C4,3.3578652 7.18997118,0 11.1250004,0 L34.875,0 Z"
             id="2"
             fill-opacity="0.2"
             fill="#0D6EFD" />
          <path
             d="M30.875,0 C34.8100292,0 38,3.3578652 38,7.5 L38,32.5 C38,36.642136 34.8100292,40 30.875,40 L7.12500038,40 C3.1899708,40 0,36.642136 0,32.5 L0,7.5 C0,3.3578652 3.18997118,0 7.12500038,0 L30.875,0 Z"
             id="1"
             fill="#0D6EFD" />
          <g
             id="Group-2"
             opacity="0.60083574"
             transform="translate(11.000000, 9.000000)"
             fill="#FFFFFF">
            <path
               d="M8,0 C10.4866886,0 12.5048408,2.02690005 12.5048408,4.52167206 L13.4038928,4.52380956 C14.400135,4.52380956 15.2581205,5.33313185 15.320036,6.3279595 L15.9964336,17.1958499 C16.0584464,18.1922549 15.3044928,19 14.311204,19 L1.68878234,19 C0.696042352,19 -0.058361792,18.1906779 0.00355432992,17.1958499 L0.679950352,6.3279595 C0.74196464,5.33155485 1.59816672,4.52380956 2.59609408,4.52380956 L3.49514576,4.52380956 C3.49514576,2.02554744 5.51496128,0 8,0 Z M3.49535993,6.333299 L2.59630848,6.333299 C2.54996617,6.333299 2.48125644,6.39803213 2.47859464,6.44079996 L1.8162718,17.190418 L14.1907118,17.1880812 L13.5218213,6.44079996 C13.5192605,6.39966212 13.4488183,6.333299 13.4041075,6.333299 L12.5050569,6.333299 L12.5050569,8.14282278 C12.5050569,8.64250898 12.1016786,9.04758461 11.6040863,9.04758461 C11.1064949,9.04758461 10.703117,8.64250898 10.703117,8.14282278 L10.703117,6.333299 L5.29729928,6.333299 L5.29729928,8.14282278 C5.29729928,8.64250898 4.89392149,9.04758461 4.39632979,9.04758461 C3.89873797,9.04758461 3.49535993,8.64250898 3.49535993,8.14282278 L3.49535993,6.333299 Z M7.9988485,1.8101686 C6.50844797,1.8101686 5.295938,3.02611892 5.295938,4.52231767 L10.701759,4.5244549 C10.701759,3.02686698 9.490311,1.8101686 7.9988485,1.8101686 Z"
               id="Combined-Shape" />
          </g>
        </g>
        <g
           id="text"
           transform="translate(49.000000, 8.000000)">
          <text
             xml:space="preserve"
             style="font-size:17.6578px;fill:#0d6efd;fill-opacity:1;stroke-width:1.47149"
             x="-7.8431721"
             y="15.006288"
             id="text1"
             transform="scale(0.77944832,1.2829587)"><tspan
               sodipodi:role="line"
               id="tspan1"
               x="-7.8431721"
               y="15.006288"
               style="font-style:normal;font-variant:normal;font-weight:bold;font-stretch:normal;font-family:sans-serif;-inkscape-font-specification:sans-serif;fill:#0d6efd;fill-opacity:1;stroke-width:1.47149">The Shop</tspan></text>
        </g>
      </g>
    </g>
  </g>
</svg>
